<svg xmlns="http://www.w3.org/2000/svg" width="1500" height="1000" viewBox="0 0 1500 1000">
  <rect width="1500" height="1000" fill="#fff"/>
  <g transform="translate(545 420) scale(1.12)">
    <path d="M0 -150L150 0L0 150L-150 0Z" fill="#f6fafc" stroke="#141f2e" stroke-width="9" stroke-linejoin="round"/>
    <path d="M-210 -82L-22 -24" stroke="#207bcf" stroke-width="18" stroke-linecap="round"/>
    <rect x="-272" y="-100" width="98" height="36" rx="18" fill="#207bcf"/>
    <path d="M-228 0L-18 0" stroke="#1c9e88" stroke-width="18" stroke-linecap="round"/>
    <rect x="-290" y="-18" width="98" height="36" rx="18" fill="#1c9e88"/>
    <path d="M-210 82L-22 24" stroke="#f2a630" stroke-width="18" stroke-linecap="round"/>
    <rect x="-272" y="64" width="98" height="36" rx="18" fill="#f2a630"/>
    <path d="M0 -116L92 -22L10 -12Z" fill="#d7e8f7"/>
    <path d="M116 0L18 72L10 12Z" fill="#def4ef"/>
    <path d="M0 116L-92 22L-10 12Z" fill="#feecc6"/>
    <path d="M-116 0L-18 -72L-10 -12Z" fill="#eef3f8"/>
    <circle cx="0" cy="0" r="30" fill="#fff" stroke="#141f2e" stroke-width="7"/>
    <circle cx="0" cy="0" r="12" fill="#f2a630"/>
  </g>
  <text x="790" y="418" font-family="SF Pro Display, Inter, Arial, sans-serif" font-size="150" font-weight="750" fill="#141f2e">FreeMEF</text>
  <text x="800" y="506" font-family="SF Pro Text, Inter, Arial, sans-serif" font-size="42" fill="#576372">Flexible Multi-Exposure Fusion</text>
  <g>
    <rect x="804" y="575" width="58" height="9" rx="4.5" fill="#207bcf"/>
    <rect x="902" y="575" width="58" height="9" rx="4.5" fill="#1c9e88"/>
    <rect x="1000" y="575" width="58" height="9" rx="4.5" fill="#f2a630"/>
    <text x="833" y="622" font-family="SF Pro Text, Inter, Arial, sans-serif" font-size="24" text-anchor="middle" fill="#707984">low</text>
    <text x="931" y="622" font-family="SF Pro Text, Inter, Arial, sans-serif" font-size="24" text-anchor="middle" fill="#707984">mid</text>
    <text x="1029" y="622" font-family="SF Pro Text, Inter, Arial, sans-serif" font-size="24" text-anchor="middle" fill="#707984">high</text>
  </g>
</svg>
