<svg xmlns="http://www.w3.org/2000/svg" width="1600" height="900" viewBox="0 0 1600 900">
  <rect width="1600" height="900" fill="#fff"/>
  <g transform="translate(505 350) scale(1.34)" fill="none" stroke-linecap="round" stroke-linejoin="round">
    <rect x="-86" y="-42" width="156" height="104" rx="18" stroke="#2576c4" stroke-width="9"/>
    <rect x="-36" y="0" width="156" height="104" rx="18" stroke="#1e9b84" stroke-width="9"/>
    <rect x="14" y="42" width="156" height="104" rx="18" stroke="#f0a437" stroke-width="9"/>
    <path d="M-14.3 165.2A126 126 0 0 1 -14.3 -41.2A126 126 0 0 1 182.1 40.1" stroke="#172333" stroke-width="10"/>
    <path d="M178 18L182.1 40.1L147 62Z" fill="#172333" stroke="none"/>
    <path d="M98 -18H142M120 -40V4" stroke="#f0a437" stroke-width="6"/>
    <circle cx="120" cy="-18" r="6" fill="#f0a437" stroke="none"/>
  </g>
  <text x="790" y="365" font-family="SF Pro Display, Inter, Arial, sans-serif" font-size="156" font-weight="750" fill="#172333">FreeMEF</text>
  <text x="799" y="458" font-family="SF Pro Text, Inter, Arial, sans-serif" font-size="43" fill="#5f6b79">Flexible Multi-Exposure Fusion</text>
  <g>
    <rect x="799" y="520" width="36" height="10" rx="5" fill="#2576c4"/>
    <rect x="857" y="520" width="36" height="10" rx="5" fill="#1e9b84"/>
    <rect x="915" y="520" width="36" height="10" rx="5" fill="#f0a437"/>
    <text x="817" y="570" font-family="SF Pro Text, Inter, Arial, sans-serif" font-size="25" text-anchor="middle" fill="#707984">-</text>
    <text x="875" y="570" font-family="SF Pro Text, Inter, Arial, sans-serif" font-size="25" text-anchor="middle" fill="#707984">0</text>
    <text x="933" y="570" font-family="SF Pro Text, Inter, Arial, sans-serif" font-size="25" text-anchor="middle" fill="#707984">+</text>
  </g>
</svg>
